<svg width="75" height="75" viewBox="0 0 75 75" fill="none" xmlns="http://www.w3.org/2000/svg">
<path d="M66.7966 30.7031C66.7966 30.7031 63.281 33.9844 57.3045 37.8516C55.6638 28.3594 51.0935 16.6406 42.1873 2.34375C42.1873 2.34375 39.2576 17.6953 29.531 32.1094C25.3123 25.5469 23.4373 20.3906 23.4373 20.3906C-7.03149 50.9766 18.281 72.6562 34.2185 72.6562C54.6091 72.6562 72.5388 62.8125 66.7966 30.7031Z" fill="#FF9D33"/>
<path d="M54.7266 57.8906C56.4844 54.0234 57.7734 48.9844 58.0078 42.6563C58.0078 42.6563 55.5469 44.7656 51.3281 47.4609C50.1562 41.1328 46.9922 33.3984 40.7812 23.7891C40.7812 23.7891 38.7891 33.9844 31.9922 43.7109C29.0625 39.375 27.7734 35.8594 27.7734 35.8594C22.7344 43.8281 20.7422 50.1562 20.625 55.1953C17.8125 54.1406 16.0547 53.3203 16.0547 53.3203C20.8594 67.6172 30.8203 70.7813 35.2734 70.7813C43.2422 70.7813 51.3281 68.4375 59.2969 57.0703C59.2969 56.9531 57.5391 57.4219 54.7266 57.8906Z" fill="#FFCE31"/>
<path d="M25.6638 51.4453C25.6638 51.4453 28.9451 55.8984 31.406 54.8437C31.406 54.8437 36.0935 47.4609 42.8904 43.3594C42.8904 43.3594 41.4841 54.6094 43.1248 56.6016C45.2341 59.2969 50.9763 53.6719 50.9763 53.6719C50.9763 60.3516 43.7107 68.6719 37.1482 68.6719C30.8201 68.6719 21.6794 61.4063 25.6638 51.4453Z" fill="#FFDF85"/>
<path d="M58.3595 21.2109C60.8205 17.6953 62.4611 13.9453 62.4611 13.9453C66.5626 20.7422 64.1017 24.8438 62.3439 26.1328C59.883 28.0078 55.547 25.3125 58.3595 21.2109ZM13.5939 20.0391C11.133 15.9375 10.8986 10.7812 10.8986 10.7812C5.0392 19.5703 7.26577 24.4922 9.25795 25.8984C11.8361 27.8906 16.2892 24.8438 13.5939 20.0391ZM27.1876 10.8984C27.5392 8.08594 26.3673 5.27344 26.3673 5.27344C31.8751 8.90625 31.8751 11.9531 31.172 13.2422C30.1173 14.7656 26.8361 14.0625 27.1876 10.8984Z" fill="#FF9D33"/>
</svg>
