<svg width="94" height="82" viewBox="0 0 94 82" fill="none" xmlns="http://www.w3.org/2000/svg">
<path d="M28.2261 76.8472C19.7546 72.8472 8.81217 53.1806 4.39991 43.8472C-1.38423 32.8473 2.28203 28.3472 2.8115 24.8472C3.23507 22.0472 8.2827 17.0138 10.7536 14.8472C13.5774 11.8472 22.9314 5.04725 37.7566 1.84725C56.288 -2.15275 75.8785 8.84725 85.9384 17.3472C93.9864 24.1472 93.8805 33.8472 92.8215 37.8472C90.8801 43.0139 84.4559 56.6472 74.2901 69.8472C61.5828 86.3472 38.8155 81.8472 28.2261 76.8472Z" fill="#F6F7FA" stroke="#F6F7FA"/>
<ellipse cx="47.2437" cy="39.5" rx="34.4156" ry="32.5" fill="white"/>
<path d="M23.7473 46.5001L37.5135 57.5001C39.0154 58.7002 40.6099 57.0001 41.2194 56L45.9846 50C45.4551 50.1667 46.5141 48.2 54.9856 39C65.575 27.5 66.634 29 71.9287 26C73.1994 22 69.9873 21 68.2224 21C67.5164 21.3333 65.575 22.3 63.4571 23.5C57.9506 26.7 49.5144 35.1667 45.9846 39L37.5135 49C36.6309 48.1667 33.5951 45.5001 28.5125 41.5001C23.006 40.7001 23.0413 44.5001 23.7473 46.5001Z" fill="#A9B819" stroke="#DAEE14"/>
</svg>
