<svg width="81" height="70" viewBox="0 0 81 70" fill="none" xmlns="http://www.w3.org/2000/svg">
<line y1="37.5" x2="4" y2="37.5" stroke="#D2D1D1"/>
<line x1="8" y1="37.5" x2="12" y2="37.5" stroke="#D2D1D1"/>
<path d="M60.7414 67.4142V8.34504C60.7414 6.91687 59.5154 5.75928 58.0031 5.75928H19.7616C18.2493 5.75928 17.0234 6.91701 17.0234 8.34504V67.4142C17.0234 68.8424 18.2494 70 19.7616 70H58.0032C59.5154 70 60.7414 68.8423 60.7414 67.4142Z" fill="#A9B819"/>
<path d="M66.9807 5.75909H57.8164C59.3287 5.75909 60.5547 6.91683 60.5547 8.34486V67.4141C60.5547 68.8422 59.3287 69.9998 57.8164 69.9998H66.9807C68.493 69.9998 69.719 68.8421 69.719 67.4141V8.34499C69.719 6.91683 68.493 5.75909 66.9807 5.75909Z" fill="#A9B819"/>
<path d="M21.5 64.8493V10.9099C21.5 10.3994 21.9382 9.98566 22.4787 9.98566H64.266C64.8066 9.98566 65.2447 10.3995 65.2447 10.9099V64.8493C65.2447 65.3598 64.8065 65.7735 64.266 65.7735H22.4787C21.9381 65.7735 21.5 65.3598 21.5 64.8493Z" fill="#F5F5F5"/>
<path d="M64.2658 9.98566H55.1016C55.6422 9.98566 56.0803 10.3995 56.0803 10.9099V64.8493C56.0803 65.3598 55.642 65.7735 55.1016 65.7735H64.2658C64.8064 65.7735 65.2445 65.3596 65.2445 64.8493V10.9099C65.2445 10.3995 64.8064 9.98566 64.2658 9.98566Z" fill="#EAEAEA"/>
<path d="M49.1837 3.21809V1.85678C49.1837 0.831387 48.3035 0 47.2175 0H39.5158C38.4298 0 37.5496 0.831387 37.5496 1.85678V3.21809C37.5496 3.6374 37.1895 3.97742 36.7455 3.97742H33.5401C32.4738 3.97742 31.6094 4.79377 31.6094 5.8007V9.98566H55.1239V5.8007C55.1239 4.79377 54.2595 3.97742 53.1932 3.97742H49.9878C49.5438 3.97742 49.1837 3.6374 49.1837 3.21809Z" fill="#C2D0DA"/>
<path d="M27.1875 24.9911V16.8511C27.1875 15.9493 27.9618 15.2181 28.9167 15.2181H37.5365C38.4914 15.2181 39.2657 15.9493 39.2657 16.8511V24.9911C39.2657 25.8929 38.4914 26.624 37.5365 26.624H28.9167C27.9616 26.624 27.1875 25.8929 27.1875 24.9911Z" fill="#A9B819"/>
<path d="M27.1875 41.9497V33.8097C27.1875 32.9079 27.9618 32.1768 28.9167 32.1768H37.5365C38.4914 32.1768 39.2657 32.9079 39.2657 33.8097V41.9497C39.2657 42.8515 38.4914 43.5827 37.5365 43.5827H28.9167C27.9616 43.5827 27.1875 42.8515 27.1875 41.9497Z" fill="#A9B819"/>
<path d="M27.1875 58.9081V50.7682C27.1875 49.8664 27.9618 49.1352 28.9167 49.1352H37.5365C38.4914 49.1352 39.2657 49.8664 39.2657 50.7682V58.9081C39.2657 59.8099 38.4914 60.5411 37.5365 60.5411H28.9167C27.9616 60.5411 27.1875 59.8101 27.1875 58.9081Z" fill="#A9B819"/>
<path d="M32.4962 23.8361C32.4949 23.8361 32.4937 23.8361 32.4924 23.8361C31.9986 23.835 31.5302 23.6091 31.2394 23.2322L29.9332 21.5383C29.5695 21.0666 29.6795 20.4058 30.179 20.0624C30.6785 19.7191 31.3782 19.823 31.7417 20.2945L32.4991 21.2769L34.7134 18.4358C35.0797 17.9659 35.7799 17.8656 36.2773 18.2114C36.7749 18.5571 36.8813 19.2184 36.515 19.6883L33.7481 23.2382C33.4563 23.6127 32.9884 23.8361 32.4962 23.8361Z" fill="#F6F9F9"/>
<path d="M32.496 41.1636C32.4946 41.1636 32.4933 41.1636 32.492 41.1636C31.9981 41.1624 31.5298 40.9367 31.2391 40.5595L29.9332 38.8658C29.5695 38.3941 29.6795 37.7334 30.179 37.3899C30.6785 37.0466 31.3782 37.1505 31.7417 37.6221L32.4991 38.6044L34.7134 35.7634C35.0797 35.2936 35.7799 35.1931 36.2773 35.5389C36.7749 35.8847 36.8813 36.546 36.515 37.0159L33.7481 40.5658C33.4563 40.9405 32.9884 41.1636 32.496 41.1636Z" fill="#F6F9F9"/>
<path d="M58.6618 19.7702H44.8334C44.2156 19.7702 43.7148 19.2973 43.7148 18.7139C43.7148 18.1306 44.2156 17.6577 44.8334 17.6577H58.6618C59.2796 17.6577 59.7803 18.1306 59.7803 18.7139C59.7803 19.2973 59.2796 19.7702 58.6618 19.7702Z" fill="#DDEAFB"/>
<path d="M51.7475 24.1845H44.8334C44.2156 24.1845 43.7148 23.7116 43.7148 23.1282C43.7148 22.5448 44.2156 22.0719 44.8334 22.0719H51.7475C52.3653 22.0719 52.8661 22.5448 52.8661 23.1282C52.8661 23.7116 52.3653 24.1845 51.7475 24.1845Z" fill="#DDEAFB"/>
<path d="M54.1116 36.7288H44.8334C44.2156 36.7288 43.7148 36.2559 43.7148 35.6725C43.7148 35.0891 44.2156 34.6162 44.8334 34.6162H54.1116C54.7294 34.6162 55.2301 35.0891 55.2301 35.6725C55.2301 36.2559 54.7294 36.7288 54.1116 36.7288Z" fill="#DDEAFB"/>
<path d="M51.7475 41.143H44.8334C44.2156 41.143 43.7148 40.6701 43.7148 40.0867C43.7148 39.5034 44.2156 39.0305 44.8334 39.0305H51.7475C52.3653 39.0305 52.8661 39.5034 52.8661 40.0867C52.8661 40.6701 52.3653 41.143 51.7475 41.143Z" fill="#DDEAFB"/>
<path d="M76.6514 27.5786L75.5532 26.2123L71.4437 23.7547L69.864 23.5197L48.8214 54.9203C48.3136 55.6775 47.9411 56.5083 47.7188 57.3795C50.279 57.4094 52.6028 58.799 53.7261 60.9719C54.4651 60.4096 55.1011 59.7364 55.6088 58.9792L76.6514 27.5786Z" fill="#FC8086"/>
<path d="M79.6223 17.9091L77.8466 16.8472C76.4624 16.0193 74.6295 16.4083 73.7533 17.7158L72.125 20.1457L72.6445 21.1345L77.5857 24.0894L78.9126 24.2046L80.5419 21.7732C81.4175 20.4664 81.0059 18.7365 79.6223 17.9091Z" fill="#8C9BA6"/>
<path d="M69.8672 23.5107L72.1293 20.1368L78.918 24.1957L76.6559 27.5697L69.8672 23.5107Z" fill="#C9E2E7"/>
<path d="M51.8942 59L74 26.1294L72.1058 25L50 57.8706C50.6935 58.1457 51.3334 58.5273 51.8942 59Z" fill="#FB636F"/>
</svg>
