<svg width="100" height="94" viewBox="0 0 100 94" fill="none" xmlns="http://www.w3.org/2000/svg">
<path d="M99.5405 47C99.5405 46.429 99.5296 45.8602 99.5084 45.2942C98.5575 20.127 76.653 0 49.7703 0C22.8875 0 0.982963 20.127 0.0322729 45.2942C0.0108872 45.8602 0 46.429 0 47C0 72.9574 25.566 92.2944 49.7703 92.2944C74.4131 92.2944 99.5405 72.9574 99.5405 47Z" fill="#395093"/>
<path d="M49.7703 90.5887C22.8879 90.5887 0.98724 70.4611 0.0361612 45.2942C0.0145811 45.8608 0 46.4287 0 47C0 72.9574 22.2829 94 49.7703 94C77.2576 94 99.5405 72.9574 99.5405 47C99.5405 46.4287 99.5259 45.8608 99.5045 45.2944C98.5533 70.4613 76.6526 90.5887 49.7703 90.5887Z" fill="#3D559D"/>
<path d="M91.2623 45.2943C90.3166 24.4257 72.1019 7.7811 49.7704 7.7811C27.4389 7.7811 9.22417 24.4257 8.27853 45.2943C8.25287 45.8599 8.27834 83.7243 49.7704 83.7243C91.2624 83.7243 91.2879 45.8599 91.2623 45.2943V45.2943Z" fill="white"/>
<path d="M49.7727 82.8076C27.4415 82.8076 9.22962 66.1626 8.2836 45.2942C8.25794 45.8601 8.24219 46.4281 8.24219 46.9998C8.24219 68.6598 26.836 86.2187 49.7727 86.2187C72.7094 86.2187 91.3033 68.66 91.3033 47C91.3033 46.4283 91.2874 45.8601 91.2619 45.2944C90.3159 66.1628 72.104 82.8076 49.7727 82.8076V82.8076Z" fill="#D5E0F2"/>
<path d="M64.8561 33.2397C63.6723 32.1372 61.7663 32.1495 60.599 33.2672L53.5352 40.0303L54.245 43.2499L57.5446 44.288L64.8855 37.2598C66.0528 36.1421 66.0397 34.3422 64.8561 33.2397V33.2397Z" fill="#405B6C"/>
<path d="M45.5097 40.2891L29.4896 26.8075C28.2482 25.7628 26.3455 25.8664 25.2394 27.0386C24.1334 28.2107 24.2429 30.0077 25.4842 31.0522L41.8199 44.7993L45.224 43.7271L45.5097 40.2891Z" fill="#405B6C"/>
<path d="M71.087 65.3295C70.7452 65.3295 70.4018 65.2202 70.1196 64.9964L51.0527 49.8723C50.4164 49.3675 50.3336 48.4708 50.8682 47.8699C51.4028 47.2686 52.3522 47.1906 52.9889 47.6957L72.0557 62.8199C72.6921 63.3248 72.7749 64.2215 72.2402 64.8224C71.9426 65.1571 71.5162 65.3295 71.087 65.3295Z" fill="#86DCFF"/>
<path d="M41.8203 44.7993L44.6316 47.1651L48.2418 46.0066L48.0461 42.423L45.5103 40.2891C43.746 41.2903 42.4106 42.8943 41.8203 44.7993Z" fill="#2D4456"/>
<path d="M53.5347 40.0304L51.1445 42.3187V46.8105H54.9096L57.5443 44.2881C56.8203 42.4382 55.3764 40.9194 53.5347 40.0304Z" fill="#2D4456"/>
<path d="M54.5879 45.294C53.8565 43.4526 51.9752 42.1419 49.7697 42.1419C47.5643 42.1419 45.6829 43.4526 44.9515 45.294C44.7408 45.8248 44.9375 50.1523 49.7697 50.1523C54.6019 50.1523 54.7987 45.8248 54.5879 45.294V45.294Z" fill="#395093"/>
<path d="M49.7655 48.4467C47.5601 48.4467 45.6795 47.1359 44.9481 45.2944C44.7372 45.8252 44.6211 46.3997 44.6211 47C44.6211 49.6831 46.9243 51.8579 49.7653 51.8579C52.6065 51.8579 54.9095 49.6829 54.9095 47C54.9095 46.3997 54.7935 45.8252 54.5827 45.2944C53.8515 47.1357 51.971 48.4467 49.7655 48.4467Z" fill="#3D559D"/>
</svg>
