<svg width="48" height="48" viewBox="0 0 48 48" fill="none" xmlns="http://www.w3.org/2000/svg">
<path fill-rule="evenodd" clip-rule="evenodd" d="M41.621 28.1646C41.369 27.3886 40.932 26.6776 40.324 26.0346C39.687 25.3626 38.85 24.8426 37.812 24.4666C36.773 24.0936 35.439 23.9046 33.795 23.9046H31.564C31.83 21.1586 32.808 18.8216 34.5 16.8896C36.189 14.9636 38.531 13.2686 41.525 11.8146L39.709 9.00061C35.767 10.6796 32.394 13.1356 29.592 16.3796C26.791 19.6266 25.396 22.8436 25.396 26.0346C25.396 29.4626 26.205 32.1516 27.836 34.0926C29.467 36.0336 31.803 37.0006 34.84 37.0006C36.767 37.0006 38.441 36.3576 39.865 35.0726C41.287 33.7896 42 32.2866 42 30.5726C42 29.7456 41.875 28.9406 41.621 28.1646ZM21.225 28.1646C20.971 27.3886 20.535 26.6776 19.926 26.0346C19.291 25.3626 18.453 24.8426 17.414 24.4666C16.377 24.0936 15.043 23.9046 13.398 23.9046H11.166C11.433 21.1586 12.41 18.8216 14.101 16.8896C15.791 14.9636 18.135 13.2686 21.127 11.8146L19.312 9.00061C15.369 10.6796 11.998 13.1356 9.19501 16.3796C6.39401 19.6266 5 22.8436 5 26.0346C5 29.4626 5.807 32.1516 7.439 34.0926C9.068 36.0336 11.404 37.0006 14.443 37.0006C16.369 37.0006 18.045 36.3576 19.469 35.0726C20.891 33.7896 21.603 32.2866 21.603 30.5726C21.603 29.7456 21.476 28.9406 21.225 28.1646Z" fill="black"/>
</svg>
